<?xml version="1.0" encoding="utf-8"?>
<!-- Generator: Adobe Illustrator 21.1.0, SVG Export Plug-In . SVG Version: 6.00 Build 0)  -->
<svg version="1.1" id="Layer_1" xmlns="http://www.w3.org/2000/svg" xmlns:xlink="http://www.w3.org/1999/xlink" x="0px" y="0px"
	 viewBox="0 0 328.5 75.8" style="enable-background:new 0 0 328.5 75.8;" xml:space="preserve">
<style type="text/css">
	.st0{fill:none;stroke:#92D6E3;stroke-width:1.5;stroke-linecap:round;stroke-miterlimit:10;}
</style>
<line class="st0" x1="112.3" y1="39.3" x2="107.3" y2="44.3"/>
<line class="st0" x1="107.3" y1="34.3" x2="112.3" y2="39.3"/>
<line class="st0" x1="112.3" y1="39.3" x2="90.9" y2="39.3"/>
<path class="st0" d="M1.3,1.5c0,0,28,37.8,96.7,37.8"/>
<path class="st0" d="M98,39.3C32.8,39.3,1.3,74,1.3,74"/>
<polyline class="st0" points="321.8,34.4 326.8,39.4 321.8,44.4 "/>
<line class="st0" x1="162.8" y1="39.8" x2="326.8" y2="39.4"/>
<path class="st0" d="M183.7,39.8c34.3,0,66.1,9.5,75.3,23.6"/>
<polyline class="st0" points="259.6,56.3 259.5,63.4 252.5,63.3 "/>
<path class="st0" d="M175.2,39.8c34.3,0,63.9-10.1,75.3-25.6"/>
<polyline class="st0" points="251.1,21.2 251,14.2 244,14.3 "/>
</svg>
