<svg xmlns="http://www.w3.org/2000/svg" viewBox="0 0 49.13 64.4"><defs><style>.cls-1,.cls-3,.cls-4,.cls-6,.cls-8,.cls-9{fill:none;stroke-linecap:round;}.cls-1,.cls-4{stroke:#14467c;stroke-width:2.14px;}.cls-1{stroke-linejoin:round;}.cls-2{fill:#fff;}.cls-3,.cls-6,.cls-9{stroke:#92d6e3;}.cls-3,.cls-4,.cls-6,.cls-8,.cls-9{stroke-miterlimit:10;}.cls-3{stroke-width:1.98px;}.cls-5{fill:#92d6e3;}.cls-6{stroke-width:0.62px;}.cls-7{fill:#ffcc40;}.cls-8{stroke:#ffcc40;stroke-width:1.64px;}.cls-9{stroke-width:1.6px;}</style></defs><title>manual-observation</title><g id="Layer_2" data-name="Layer 2"><g id="Layer_1-2" data-name="Layer 1"><path class="cls-1" d="M46.47,49.07c3.42-4.74.81-10-2.88-12.47L37.16,32.3c-3-2-4.76,1.77-3.42,2.67-3.1-2.08-5.16,1.66-3.07,3.06-2.89-1.93-5.38,1.44-2.75,3.19L21,36.59c-2.35-1.58-5.44,1.63-2.44,3.64s12.06,7.94,12.06,7.94-3.22,0-5.42.05-3.45,4.1.4,4.38C34.15,53.21,42.65,54.36,46.47,49.07Z"/><line class="cls-1" x1="33.74" y1="34.97" x2="37.67" y2="37.61"/><line class="cls-1" x1="30.67" y1="38.03" x2="34.21" y2="40.4"/><line class="cls-1" x1="27.92" y1="41.22" x2="30.62" y2="43.04"/><line class="cls-2" x1="6.94" y1="38.66" x2="12.36" y2="38.66"/><line class="cls-3" x1="6.94" y1="38.66" x2="12.36" y2="38.66"/><line class="cls-2" x1="6.94" y1="44.02" x2="17.84" y2="44.02"/><line class="cls-3" x1="6.94" y1="44.02" x2="17.84" y2="44.02"/><line class="cls-2" x1="6.94" y1="49.38" x2="15.7" y2="49.38"/><line class="cls-3" x1="6.94" y1="49.38" x2="15.7" y2="49.38"/><path class="cls-4" d="M27,56.08v5.64a1.62,1.62,0,0,1-1.61,1.61H2.68a1.62,1.62,0,0,1-1.61-1.61V24.92A1.62,1.62,0,0,1,2.68,23.3H25.4A1.62,1.62,0,0,1,27,24.92v8.64"/><line class="cls-4" x1="1.07" y1="30.09" x2="27.01" y2="30.09"/><line class="cls-4" x1="1.07" y1="56.08" x2="27.01" y2="56.08"/><path class="cls-5" d="M15.37,59.73A1.34,1.34,0,1,1,14,58.4a1.34,1.34,0,0,1,1.34,1.34"/><line class="cls-6" x1="11.29" y1="26.79" x2="16.79" y2="26.79"/><path class="cls-7" d="M31,9.22a4.33,4.33,0,1,1-4.34-4.32A4.33,4.33,0,0,1,31,9.22"/><line class="cls-2" x1="26.65" y1="0.82" x2="26.66" y2="2.98"/><line class="cls-8" x1="26.65" y1="0.82" x2="26.66" y2="2.98"/><line class="cls-2" x1="26.69" y1="17.78" x2="26.69" y2="15.62"/><line class="cls-8" x1="26.69" y1="17.78" x2="26.69" y2="15.62"/><line class="cls-2" x1="35.15" y1="9.28" x2="33" y2="9.28"/><line class="cls-8" x1="35.15" y1="9.28" x2="33" y2="9.28"/><line class="cls-2" x1="18.2" y1="9.32" x2="20.35" y2="9.31"/><line class="cls-8" x1="18.2" y1="9.32" x2="20.35" y2="9.31"/><line class="cls-2" x1="32.66" y1="3.29" x2="31.13" y2="4.82"/><line class="cls-8" x1="32.66" y1="3.29" x2="31.13" y2="4.82"/><line class="cls-2" x1="20.69" y1="15.31" x2="22.21" y2="13.78"/><line class="cls-8" x1="20.69" y1="15.31" x2="22.21" y2="13.78"/><line class="cls-2" x1="32.68" y1="15.28" x2="31.16" y2="13.76"/><line class="cls-8" x1="32.68" y1="15.28" x2="31.16" y2="13.76"/><line class="cls-2" x1="20.67" y1="3.32" x2="22.19" y2="4.84"/><line class="cls-8" x1="20.67" y1="3.32" x2="22.19" y2="4.84"/><path class="cls-5" d="M37,19.78a3.2,3.2,0,0,1-.28-1.27,2,2,0,0,1,2-2,1.94,1.94,0,0,1,1,.3,3.4,3.4,0,0,1,3.22-2.34,3.27,3.27,0,0,1,3.41,3.41c0,.2-.09.59-.09.59a2.59,2.59,0,1,1,.09,5.17H37a2,2,0,0,1,0-3.9"/><line class="cls-9" x1="38.46" y1="25.47" x2="37.21" y2="28.04"/><line class="cls-9" x1="45.19" y1="25.47" x2="43.94" y2="28.04"/><line class="cls-9" x1="41.86" y1="25.47" x2="40.61" y2="28.04"/></g></g></svg>