<svg xmlns="http://www.w3.org/2000/svg" viewBox="0 0 44.12 35.85"><defs><style>.cls-1{fill:#92d6e3;}</style></defs><title>share</title><g id="Layer_2" data-name="Layer 2"><g id="Layer_1-2" data-name="Layer 1"><path class="cls-1" d="M13.87,35.85c16.65,0,25.75-13.79,25.75-25.75,0-.39,0-.78,0-1.17a18.42,18.42,0,0,0,4.52-4.68,18.11,18.11,0,0,1-5.2,1.42,9.08,9.08,0,0,0,4-5,18.13,18.13,0,0,1-5.75,2.2,9.06,9.06,0,0,0-15.42,8.25A25.7,25.7,0,0,1,3.07,1.66a9.06,9.06,0,0,0,2.8,12.08,9,9,0,0,1-4.1-1.13s0,.08,0,.12A9.06,9.06,0,0,0,9,21.6a9.12,9.12,0,0,1-2.39.32,9,9,0,0,1-1.7-.16A9.06,9.06,0,0,0,13.4,28,18.17,18.17,0,0,1,2.16,31.91,18.55,18.55,0,0,1,0,31.79a25.63,25.63,0,0,0,13.87,4.06"/></g></g></svg>