<svg xmlns="http://www.w3.org/2000/svg" viewBox="0 0 50.8 82.16"><defs><style>.cls-1,.cls-3,.cls-4{fill:none;stroke-linecap:round;stroke-miterlimit:10;}.cls-1{stroke:#14467c;}.cls-1,.cls-3{stroke-width:2.06px;}.cls-2{fill:#fff;}.cls-3,.cls-4{stroke:#92d6e3;}.cls-4{stroke-width:2px;}</style></defs><title>upload-cloud</title><g id="Layer_2" data-name="Layer 2"><g id="Layer_1-2" data-name="Layer 1"><path class="cls-1" d="M41.1,55.92V78.77a2.37,2.37,0,0,1-2.37,2.37H12.47a2.37,2.37,0,0,1-2.37-2.37V48.4A2.37,2.37,0,0,1,12.47,46"/><path class="cls-1" d="M38.73,46A2.37,2.37,0,0,1,41.1,48.4v7.52"/><line class="cls-1" x1="36.86" y1="46.03" x2="38.73" y2="46.03"/><line class="cls-1" x1="12.47" y1="46.03" x2="14.42" y2="46.03"/><line class="cls-2" x1="17.02" y1="60.79" x2="34.17" y2="60.79"/><line class="cls-3" x1="17.02" y1="60.79" x2="34.17" y2="60.79"/><line class="cls-2" x1="17.02" y1="67.31" x2="34.17" y2="67.31"/><line class="cls-3" x1="17.02" y1="67.31" x2="34.17" y2="67.31"/><line class="cls-2" x1="17.02" y1="73.83" x2="34.17" y2="73.83"/><line class="cls-3" x1="17.02" y1="73.83" x2="34.17" y2="73.83"/><line class="cls-2" x1="17.02" y1="54.26" x2="34.17" y2="54.26"/><line class="cls-3" x1="17.02" y1="54.26" x2="34.17" y2="54.26"/><path class="cls-1" d="M38.91,33.23h4a6.85,6.85,0,0,0,6.85-6.85c0-3.79-2.7-6.52-6.85-6.85a11.26,11.26,0,0,0,1-4.48,7,7,0,0,0-6.85-6.85,6.8,6.8,0,0,0-3.63,1.06A11.94,11.94,0,0,0,22.1,1C15.49,1,9.73,6,10.12,13c0,.71.3,2.06.3,2.06C5.06,15.15,1,19.12,1,24.14a9.09,9.09,0,0,0,9.09,9.09h2.15"/><line class="cls-4" x1="25.7" y1="42.05" x2="25.7" y2="34.97"/><polyline class="cls-4" points="21.49 37.36 25.78 32.74 29.7 37.36"/><circle class="cls-4" cx="25.6" cy="37.39" r="9.34"/></g></g></svg>