<?xml version="1.0" encoding="utf-8"?>
<!-- Generator: Adobe Illustrator 22.1.0, SVG Export Plug-In . SVG Version: 6.00 Build 0)  -->
<svg version="1.1" id="Layer_1" xmlns="http://www.w3.org/2000/svg" xmlns:xlink="http://www.w3.org/1999/xlink" x="0px" y="0px"
	 viewBox="0 0 71.3 47.6" style="enable-background:new 0 0 71.3 47.6;" xml:space="preserve">
<style type="text/css">
	.st0{fill:none;stroke:#92D6E3;stroke-width:2.14;stroke-linecap:round;stroke-miterlimit:10;}
	.st1{fill:none;stroke:#14467C;stroke-width:2.14;stroke-linecap:round;stroke-miterlimit:10;}
	.st2{fill:none;}
	.st3{fill:none;stroke:#FFCC40;stroke-width:1.6;stroke-linecap:round;stroke-linejoin:round;}
	.st4{fill:#FFCC40;}
	.st5{fill:none;stroke:#FFCC40;stroke-width:0.88;stroke-linecap:round;stroke-linejoin:round;}
	.st6{fill:none;stroke:#FFCC40;stroke-width:1.87;stroke-linecap:round;stroke-miterlimit:10;}
</style>
<title>world-conditions</title>
<g id="Layer_2_1_">
	<g id="Layer_1-2">
		<line class="st0" x1="39.1" y1="7.3" x2="39.1" y2="46.6"/>
		<path class="st0" d="M39.1,46.6L39.1,46.6z"/>
		<line class="st0" x1="19.5" y1="27" x2="58.8" y2="27"/>
		<path class="st0" d="M39.1,7.3c0,0,11.7,7.5,11.7,19.6S39.1,46.6,39.1,46.6"/>
		<path class="st0" d="M39.1,7.3c0,0-11.7,7.5-11.7,19.6s11.7,19.6,11.7,19.6"/>
		<path class="st0" d="M24.2,14.2C29,16,34,17,39.1,17.2c5.1-0.1,10.1-1.2,14.9-3"/>
		<path class="st0" d="M54,39.9c-4.8-1.8-9.8-2.9-14.9-3c-5.1,0.1-10.1,1.2-14.9,3"/>
		<path class="st1" d="M22.9,16c6.1-9,18.3-11.4,27.3-5.3c2.1,1.4,3.9,3.2,5.3,5.3"/>
		<path class="st1" d="M58.5,23.7c1.8,10.7-5.5,20.8-16.1,22.6s-20.8-5.5-22.6-16.1c-0.4-2.1-0.4-4.3,0-6.4"/>
		<line class="st2" x1="16.4" y1="15.1" x2="24.5" y2="22.3"/>
		<line class="st3" x1="16.4" y1="15.1" x2="24.5" y2="22.3"/>
		<line class="st2" x1="62.2" y1="15.1" x2="54.1" y2="22.3"/>
		<line class="st3" x1="62.2" y1="15.1" x2="54.1" y2="22.3"/>
		<polygon class="st4" points="70.8,11.2 67.4,10 68.5,4.7 63.1,11.2 66.5,12.4 65.4,17.7 		"/>
		<polygon class="st5" points="70.8,11.2 67.4,10 68.5,4.7 63.1,11.2 66.5,12.4 65.4,17.7 		"/>
		<path class="st4" d="M15.1,11.4c-0.7,2.6-3.4,4.2-6,3.5s-4.2-3.4-3.5-6s3.4-4.2,6-3.5c0,0,0,0,0,0C14.2,6.1,15.8,8.8,15.1,11.4"/>
		<line class="st2" x1="12.7" y1="0.9" x2="12.1" y2="3.3"/>
		<line class="st6" x1="12.7" y1="0.9" x2="12.1" y2="3.3"/>
		<line class="st2" x1="7.9" y1="19.6" x2="8.5" y2="17.3"/>
		<line class="st6" x1="7.9" y1="19.6" x2="8.5" y2="17.3"/>
		<line class="st2" x1="19.6" y1="12.7" x2="17.3" y2="12.1"/>
		<line class="st6" x1="19.6" y1="12.7" x2="17.3" y2="12.1"/>
		<line class="st2" x1="0.9" y1="7.9" x2="3.3" y2="8.5"/>
		<line class="st6" x1="0.9" y1="7.9" x2="3.3" y2="8.5"/>
		<line class="st2" x1="18.6" y1="5.4" x2="16.5" y2="6.6"/>
		<line class="st6" x1="18.6" y1="5.4" x2="16.5" y2="6.6"/>
		<line class="st2" x1="2" y1="15.2" x2="4.1" y2="13.9"/>
		<line class="st6" x1="2" y1="15.2" x2="4.1" y2="13.9"/>
		<line class="st2" x1="15.2" y1="18.6" x2="13.9" y2="16.5"/>
		<line class="st6" x1="15.2" y1="18.6" x2="13.9" y2="16.5"/>
		<line class="st2" x1="5.4" y1="2" x2="6.6" y2="4.1"/>
		<line class="st6" x1="5.4" y1="2" x2="6.6" y2="4.1"/>
	</g>
</g>
</svg>
