<?xml version="1.0" encoding="utf-8"?>
<!-- Generator: Adobe Illustrator 23.0.4, SVG Export Plug-In . SVG Version: 6.00 Build 0)  -->
<svg version="1.1" id="Layer_1" xmlns="http://www.w3.org/2000/svg" xmlns:xlink="http://www.w3.org/1999/xlink" x="0px" y="0px"
	 viewBox="0 0 333.3 101.2" style="enable-background:new 0 0 333.3 101.2;" xml:space="preserve">
<style type="text/css">
	.st0{fill:#FFFFFF;}
</style>
<g>
	<path class="st0" d="M51.1,48.5c-0.1-0.1-0.3-0.2-0.5-0.3"/>
	<path class="st0" d="M52,51.1c0-0.2,0-0.4,0-0.6"/>
	<path class="st0" d="M50.2,53.2c0.2-0.1,0.4-0.2,0.5-0.2"/>
	<path class="st0" d="M47.5,52.7c0.1,0.1,0.3,0.2,0.5,0.3"/>
	<path class="st0" d="M46.6,50.1c0,0.2-0.1,0.4-0.1,0.6"/>
	<path class="st0" d="M48.4,48c-0.2,0.1-0.4,0.1-0.5,0.2"/>
	<path class="st0" d="M252.4,37.7h-9c-0.5,0-1,0.4-1,1v60.7c0,0.5,0.4,1,1,1h9.4c0.5,0,1-0.5,1-1V60.8c0.7-7.2,6.8-13.2,14.1-13.4
		c0.5-0.1,0.9-0.5,0.9-1v-9.2c0-0.6-0.5-1-1.1-1c-4.7,0.8-9,2.6-12.8,5.5c-0.6,0.5-1.6,0.1-1.6-0.8v-2.3
		C253.3,38.1,252.9,37.7,252.4,37.7"/>
	<path class="st0" d="M167.4,82.2c-3.4,7.2-9.2,13.2-16.6,16.4c-10.6,4.6-23,3.2-32.3-3.6c-9.2-6.8-14.2-18.4-13-29.8
		c1.3-11.4,8.8-21.6,19.3-26.1c10.6-4.6,23-3.1,32.3,3.7c9.3,6.9,14.1,18.4,12.9,29.8c-0.1,0.5-0.5,0.8-1,0.9h-50.9
		c-0.7,0-1.1,0.6-0.9,1.2c3.5,11.4,15.6,18.2,27.2,14.5c4.4-1.4,8.3-4.2,10.9-8c0.2-0.3,0.5-0.4,0.8-0.4h10.4
		C167.2,80.8,167.7,81.6,167.4,82.2 M157.8,61.1c-4.4-11.1-17.3-16.6-28.3-12c-5.3,2.2-9.5,6.6-11.6,12c-0.2,0.6,0.2,1.3,0.9,1.3
		h38.2C157.6,62.4,158.1,61.7,157.8,61.1z"/>
	<path class="st0" d="M93.7,24.1c-6.4-10-15.7-17.7-27-21.5C55.4-1.2,43-0.8,32,3.5C21,7.9,11.8,16.1,6.1,26.4
		C0.5,36.7-1.4,49.1,1,60.6c2.4,11.8,8.9,22,18.1,29.6c9,7.4,21.1,11.3,32.7,11c8.9-0.2,17.5-2.8,25.1-7.4c0.3-0.2,0.5-0.5,0.5-0.8
		V81.5c0-0.8-1-1.3-1.6-0.7c-9.3,7.6-21.4,10.7-33.2,8.3c-12.3-2.5-22.9-11.2-27.9-22.6c-5.1-11.6-4.2-25,2.2-35.9
		c6.4-10.8,18-18,30.5-19c12.7-1.1,24.9,4.2,33.2,13.7c0.2,0.2,0.4,0.3,0.7,0.3h11.6C93.6,25.5,94.1,24.7,93.7,24.1"/>
	<path class="st0" d="M94.2,37.7h-9c-0.5,0-1,0.4-1,1v60.7c0,0.5,0.4,1,1,1h9.4c0.5,0,1-0.5,1-1V60.8c0.7-7.2,6.8-13.2,14.1-13.4
		c0.5-0.1,0.9-0.5,0.9-1v-9.2c0-0.6-0.5-1-1.1-1c-4.7,0.8-9,2.6-12.8,5.5c-0.6,0.5-1.5,0-1.6-0.8v-2.3
		C95.1,38.1,94.7,37.7,94.2,37.7"/>
	<path class="st0" d="M224.7,94.5c-2.2,1.7-4.6,3.1-7.2,4.2c-10.6,4.6-22.9,2.7-32-4.1c-9.2-6.8-13.8-18.6-12.5-29.8
		c1.4-11.3,9.2-21.4,19.7-25.7c10.7-4.4,22.8-2.6,32,4.3c0.7,0.5,1.5,0,1.6-0.8v-3.8c0-0.5,0.4-1,1-1h9.1c0.5,0,1,0.4,1,1v60.6
		c0,0.5-0.4,1-1,1h-9.1c-0.5,0-1-0.5-1-1v-4.1C226.3,94.4,225.4,94,224.7,94.5 M226.3,69c-0.1-11.8-10-21.6-21.9-21.2
		c-11.8,0.4-21.2,10.8-20.5,22.6c0.7,11.8,11.5,20.8,23.2,19.8C217.9,89.1,226.2,79.7,226.3,69"/>
	<path class="st0" d="M327.4,73.4h-50.9c-0.7,0-1.1,0.6-0.9,1.2c3.5,11.5,15.7,18.2,27.2,14.5c4.4-1.4,8.2-4.3,10.9-8
		c0.2-0.3,0.5-0.4,0.8-0.4h10.4c0.7,0,1.1,0.7,0.9,1.4c-3.5,7.2-9.1,13.1-16.6,16.4c-10.6,4.6-23,3.2-32.3-3.6
		c-9.3-6.8-14.2-18.4-13-29.8c1.3-11.4,8.8-21.6,19.3-26.1c10.6-4.5,23-3.1,32.3,3.7c9.3,6.9,14.1,18.4,12.9,29.8
		C328.3,73.1,327.9,73.4,327.4,73.4 M277.6,61.9h38.1c0.7,0,1.2-0.7,0.9-1.4c-4.8-11-18-16.4-29-11.2c-4.9,2.3-8.7,6.3-10.9,11.2
		C276.4,61.1,276.9,61.8,277.6,61.9z"/>
	<path class="st0" d="M48.4,48c0.1-3,0.5-6.2,2-8.9c1.6-2.8,4.2-5,7-6.5c6.1-3.1,13.1-2.2,18.1,2.5c2.3,2.2,4,5,4.7,8
		c0.3,1.5,0.5,3.1,0.5,4.6c0,0.7,0,1.5,0,2.2c0,0.3,0.1,2-0.1,2.1c-0.5,0.4-1.1-2.3-1.2-2.7c-0.5-1.4-1.1-2.9-2-4.2
		c-1.7-2.7-4.3-4.7-7.3-5.8c-3.8-1.4-8-1.2-11.7,0.5c-3.7,1.6-6,4.6-7.7,8.2"/>
	<path class="st0" d="M51.1,48.5c2.7-1.4,5.6-2.7,8.7-2.7c3.2,0,6.4,1.1,9.1,2.8c5.8,3.7,8.4,10.2,6.9,16.9
		c-0.7,3.1-2.3,5.9-4.6,8.1c-1.1,1.1-2.4,1.9-3.8,2.7c-0.5,0.3-3.3,2.3-3.9,2.1C63,78.2,65,76.4,65.3,76c1-1.2,1.9-2.4,2.6-3.8
		c1.4-2.8,1.9-6.1,1.4-9.2c-0.7-4-3-7.5-6.3-9.9c-3.3-2.5-7-2.9-10.9-2.5"/>
	<path class="st0" d="M52,51.1c2.6,1.6,5.1,3.5,6.7,6.2c1.7,2.8,2.3,6.1,2.1,9.3c-0.4,6.9-4.6,12.4-11.2,14.4c-3,0.9-6.3,1-9.3,0
		c-1.5-0.5-2.9-1.2-4.2-1.9c-0.6-0.3-3.7-1.7-3.7-2.3c-0.1-0.6,2.5,0.2,2.9,0.3c1.5,0.3,3,0.4,4.6,0.4c3.1-0.1,6.3-1.4,8.7-3.4
		c3.1-2.6,5-6.4,5.4-10.4c0.5-4.1-0.9-7.5-3.3-10.8"/>
	<path class="st0" d="M50.2,53.2c-0.2,3.1-0.5,6.2-2,8.9c-1.6,2.8-4.2,5-7,6.5c-6.1,3.1-13.1,2.2-18.1-2.5c-2.3-2.2-4-4.9-4.7-8
		c-0.4-1.5-0.4-3.1-0.5-4.6c0-0.6-0.3-4.1,0.2-4.4c0.5-0.3,1.1,2.3,1.2,2.7c0.5,1.4,1.1,2.9,2,4.2c1.7,2.7,4.3,4.7,7.3,5.8
		c3.7,1.4,8.1,1.2,11.7-0.5c3.7-1.8,6-4.5,7.7-8.2"/>
	<path class="st0" d="M47.5,52.7c-2.7,1.4-5.6,2.7-8.7,2.7c-3.2,0-6.4-1.1-9.1-2.8c-5.7-3.7-8.5-10.2-6.9-16.9
		c0.8-3.1,2.3-5.9,4.6-8.1c1.1-1.1,2.4-1.9,3.8-2.7c0.6-0.3,3.3-2.3,3.9-2c0.5,0.2-1.4,2.1-1.7,2.4c-1,1.2-1.9,2.4-2.6,3.8
		c-1.5,2.8-1.9,6.1-1.4,9.2c0.7,3.9,3,7.6,6.3,9.9c3.4,2.4,6.9,2.9,10.9,2.5"/>
	<path class="st0" d="M46.6,50.1c-2.6-1.7-5.1-3.5-6.7-6.2c-1.6-2.8-2.3-6.1-2.1-9.3c0.4-6.8,4.6-12.5,11.2-14.4c3-0.9,6.3-1,9.3,0
		c1.5,0.5,2.9,1.1,4.3,1.9c0.7,0.4,1.3,0.8,1.9,1.2c0.3,0.2,1.8,0.9,1.8,1.2c0.1,0.6-2.5-0.2-2.9-0.3c-1.5-0.3-3.1-0.4-4.6-0.4
		c-3.2,0.1-6.3,1.4-8.7,3.4c-3,2.5-5.1,6.4-5.4,10.4c-0.4,4.1,0.9,7.5,3.3,10.8"/>
	<path class="st0" d="M46.5,50.6c0,1.6,1.3,2.8,2.8,2.8c1.5,0,2.8-1.3,2.8-2.8c0-1.5-1.3-2.8-2.8-2.8C47.7,47.8,46.5,49,46.5,50.6"
		/>
	<path class="st0" d="M328.9,39c-2.4,0-4.4-2-4.4-4.4c0-2.4,2-4.4,4.4-4.4c2.5,0,4.4,2,4.4,4.4C333.3,37,331.3,39,328.9,39z
		 M328.9,31.1c-1.9,0-3.4,1.5-3.4,3.5c0,1.9,1.5,3.5,3.4,3.5c1.9,0,3.5-1.5,3.5-3.5C332.3,32.7,330.8,31.1,328.9,31.1z"/>
	<g>
		<path class="st0" d="M327.6,32.4c0.3-0.1,0.7-0.1,1.1-0.1c0.6,0,1,0.1,1.3,0.4c0.2,0.2,0.4,0.5,0.4,0.9c0,0.6-0.4,1-0.8,1.1v0
			c0.3,0.1,0.6,0.4,0.7,0.9c0.1,0.6,0.3,1.1,0.3,1.2h-0.6c-0.1-0.1-0.2-0.5-0.3-1.1c-0.1-0.6-0.4-0.9-0.9-0.9h-0.5v2h-0.6V32.4z
			 M328.2,34.4h0.6c0.6,0,1-0.3,1-0.9c0-0.6-0.4-0.8-1-0.8c-0.3,0-0.5,0-0.6,0.1V34.4z"/>
	</g>
</g>
</svg>
