<?xml version="1.0" encoding="utf-8"?>
<!-- Generator: Adobe Illustrator 21.1.0, SVG Export Plug-In . SVG Version: 6.00 Build 0)  -->
<svg version="1.1" id="Layer_1" xmlns="http://www.w3.org/2000/svg" xmlns:xlink="http://www.w3.org/1999/xlink" x="0px" y="0px"
	 viewBox="0 0 300 100" style="enable-background:new 0 0 300 100;" xml:space="preserve">
<style type="text/css">
	.st0{fill:none;stroke:#92D6E3;stroke-width:4.0772;stroke-linecap:round;stroke-miterlimit:10;}
	.st1{fill:none;stroke:#14467C;stroke-width:4.6312;stroke-linecap:round;stroke-linejoin:round;stroke-miterlimit:10;}
	.st2{fill:none;stroke:#14467C;stroke-width:5.0679;stroke-linecap:round;stroke-miterlimit:10;}
	.st3{fill:none;stroke:#92D6E3;stroke-width:4.5656;stroke-linecap:round;stroke-miterlimit:10;}
	.st4{fill:none;stroke:#92D6E3;stroke-width:4.3956;stroke-linecap:round;stroke-miterlimit:10;}
	.st5{fill:none;stroke:#92D6E3;stroke-width:1.3066;stroke-linecap:round;stroke-miterlimit:10;}
	.st6{fill:#92D6E3;}
	.st7{fill:none;stroke:#92D6E3;stroke-width:4.5639;stroke-linecap:round;stroke-linejoin:round;stroke-miterlimit:10;}
	.st8{fill:none;stroke:#13477C;stroke-width:4.9953;stroke-linecap:round;stroke-linejoin:round;stroke-miterlimit:10;}
	.st9{fill:#93D6E3;}
	.st10{fill:none;stroke:#93D6E3;stroke-width:4.2817;stroke-linecap:round;stroke-miterlimit:10;}
	.st11{fill:none;stroke:#93D6E3;stroke-width:4.2817;stroke-linecap:round;stroke-linejoin:round;stroke-miterlimit:10;}
	.st12{fill:none;stroke:#14467C;stroke-width:5.0625;stroke-linecap:round;stroke-miterlimit:10;}
	.st13{fill:none;stroke:#92D6E3;stroke-width:4.5607;stroke-linecap:round;stroke-miterlimit:10;}
	.st14{fill:none;stroke:#92D6E3;stroke-width:4.5591;stroke-linecap:round;stroke-linejoin:round;stroke-miterlimit:10;}
	.st15{fill:none;stroke:#92D6E3;stroke-width:3.4856;stroke-linecap:round;stroke-miterlimit:10;}
	.st16{fill:none;stroke:#93D6E3;stroke-width:4.0585;stroke-linecap:round;stroke-miterlimit:10;}
	.st17{fill:none;stroke:#13477C;stroke-width:4.9122;stroke-linecap:round;stroke-miterlimit:10;}
	.st18{fill:#FFFFFF;stroke:#93D6E3;stroke-width:4.0585;stroke-linecap:round;stroke-miterlimit:10;}
	.st19{fill:none;stroke:#93D6E3;stroke-width:4.0585;stroke-linecap:round;stroke-linejoin:round;stroke-miterlimit:10;}
	.st20{fill:none;stroke:#13477C;stroke-width:5.0238;stroke-linecap:round;stroke-miterlimit:10;}
	.st21{fill:none;stroke:#13477C;stroke-width:4.5087;stroke-linecap:round;stroke-miterlimit:10;}
	.st22{fill:none;stroke:#93D6E3;stroke-width:4.4204;stroke-linecap:round;stroke-linejoin:round;stroke-miterlimit:10;}
	.st23{fill:none;stroke:#13477C;stroke-width:10.3766;stroke-linecap:round;stroke-miterlimit:10;}
</style>
<g>
	<g>
		<path class="st0" d="M465.9,254.5c3-3.6,7.6-5.9,12.7-5.9c9.1,0,16.5,7.4,16.5,16.5c0,3.4-1,6.6-2.8,9.2c-0.5,0.8-1.1,1.5-1.8,2.2
			"/>
		<path class="st0" d="M440.5,270.5c-0.7-2.7-1.8-8.9-0.5-14.7c3.9-17.5,19.9-30.5,38.7-30.5c21.9,0,39.7,17.8,39.7,39.7
			c0,8-2.4,15.7-6.8,22.2c-4.7,7-11.4,12.1-19,15"/>
		<path class="st0" d="M451.8,271.8c-0.6-2.3-0.9-4.6-0.9-7.1c0-15.4,12.4-27.8,27.8-27.8s27.8,12.4,27.8,27.8
			c0,13.2-9.2,24.3-21.6,27.1"/>
	</g>
	<polyline class="st1" points="443.7,304.2 482.9,276.4 464.2,261.9 464.2,318.9 482.9,304.4 443.6,276.6 	"/>
</g>
<g>
	<path class="st2" d="M-124.7,173.9h84.9c8.6,0,15.6-7,15.6-15.6s-6.2-14.9-15.6-15.6c0,0,2.5-5.5,2.3-10.2
		c-0.5-8.6-7-15.6-15.6-15.6c-3.1,0-5.9,0.9-8.3,2.4c-3.6-10.9-13.7-18.7-25.8-18.7c-15.1,0-28.2,11.3-27.3,27.3"/>
	<path class="st3" d="M-87.2,111.2c-8.1,0.2-16.7,6.3-14.6,19.5"/>
	<path class="st2" d="M-138.3,158.6v11.9c0,1.9-1.5,3.4-3.4,3.4h-47.9c-1.9,0-3.4-1.5-3.4-3.4V92.9c0-1.9,1.5-3.4,3.4-3.4h47.9
		c1.9,0,3.4,1.5,3.4,3.4v37.7"/>
	<path class="st4" d="M-138.3,158.6"/>
	<line class="st2" x1="-193" y1="103.8" x2="-138.3" y2="103.8"/>
	<line class="st5" x1="-171.5" y1="96.8" x2="-159.9" y2="96.8"/>
	<line class="st2" x1="-193" y1="158.6" x2="-138.3" y2="158.6"/>
	<circle class="st6" cx="-165.7" cy="166.3" r="2.8"/>
	<g>
		<line class="st7" x1="-141.8" y1="144.9" x2="-113.3" y2="144.9"/>
		<polyline class="st7" points="-127.5,132.1 -113.3,145.2 -127.5,157.2 		"/>
	</g>
</g>
<g>
	<polyline class="st8" points="314.6,273.9 330.8,273.9 339.4,255.9 350.7,292.1 360.6,236.9 373.7,304.9 381.4,273 405.6,273 	"/>
	<circle class="st9" cx="405.6" cy="273" r="7.1"/>
</g>
<path class="st10" d="M316.4,260.2c5.6-19.1,23.2-33.1,44.1-33.1c18.1,0,33.8,10.5,41.3,25.8"/>
<path class="st10" d="M403.8,288.4c-6.3,17.8-23.3,30.6-43.3,30.6c-20,0-37-12.8-43.3-30.6"/>
<polyline class="st11" points="405.7,244.6 402.9,254.6 392.7,252.5 "/>
<polyline class="st11" points="312,295.8 316.7,286.5 326.3,290.7 "/>
<g>
	<path class="st12" d="M-140.6-35.5v-33.2c0-1.9,1.6-3.5,3.5-3.5h46.7c1.9,0,3.5,1.6,3.5,3.5v66.9c0,1.9-1.6,3.5-3.5,3.5h-46.7"/>
	<g>
		<path class="st12" d="M-156.2-30c0,0,2.5-5.5,2.3-10.2c-0.5-8.6-7-15.6-15.6-15.6c-3,0-5.9,0.9-8.3,2.4
			c-3.6-10.8-13.7-18.7-25.8-18.7c-15.1,0-28.2,11.2-27.3,27.3c0.1,1.6,0.7,4.7,0.7,4.7c-12.2,0.2-21.4,9.2-21.4,20.7
			c0,11.4,9.3,20.7,20.7,20.7h71.2"/>
		<path class="st13" d="M-203.7-61.5c-8.1,0.2-16.7,6.3-14.6,19.4"/>
		<g>
			<line class="st14" x1="-161.6" y1="-13.9" x2="-133.1" y2="-13.9"/>
			<polyline class="st14" points="-147.2,-26.7 -133.1,-13.6 -147.2,-1.6 			"/>
		</g>
		<line class="st15" x1="-98.5" y1="-58.2" x2="-129.8" y2="-58.2"/>
		<line class="st15" x1="-129.8" y1="-38.4" x2="-98.5" y2="-38.4"/>
		<line class="st15" x1="-129.8" y1="-48.3" x2="-98.5" y2="-48.3"/>
	</g>
</g>
<g>
	<line class="st16" x1="151.3" y1="46.7" x2="151.3" y2="2.4"/>
	<line class="st16" x1="110.4" y1="43.4" x2="192.3" y2="43.4"/>
	<path class="st16" d="M151.3,2.4c0,0,24.3,15.6,24.3,40.9c0,4.3-0.7,8.3-1.9,12"/>
	<path class="st16" d="M151.3,2.4c0,0-24.3,15.6-24.3,40.9c0,4.7,0.9,9.1,2.2,13.2"/>
	<path class="st16" d="M120.3,16.7c0,0,15,6.2,31.1,6.2s31.1-6.2,31.1-6.2"/>
	<path class="st17" d="M122.4,72.3c-7.4-7.4-12-17.6-12-28.9c0-22.6,18.3-40.9,40.9-40.9s40.9,18.3,40.9,40.9c0,11.3-4.6,21.6-12,29
		"/>
	<circle class="st16" cx="151.5" cy="76.9" r="21.6"/>
	<line class="st18" x1="151.7" y1="87.7" x2="151.7" y2="71.3"/>
	<polyline class="st19" points="142,76.8 151.9,66.1 161,76.8 	"/>
</g>
<line class="st20" x1="-14.6" y1="309.6" x2="4.5" y2="326.5"/>
<circle class="st21" cx="-45.8" cy="284.3" r="40.1"/>
<g>
	<polyline class="st22" points="-78.2,287.2 -72.3,287.2 -64,269.8 -53.2,304.6 -43.7,251.6 -31.1,313.6 -23.7,286.3 -13.4,286.3 	
		"/>
</g>
<circle class="st20" cx="-45.8" cy="284.3" r="40.1"/>
<line class="st23" x1="-5" y1="318" x2="4.5" y2="326.5"/>
</svg>
