<?xml version="1.0" encoding="utf-8"?>
<!-- Generator: Adobe Illustrator 21.1.0, SVG Export Plug-In . SVG Version: 6.00 Build 0)  -->
<svg version="1.1" id="Layer_1" xmlns="http://www.w3.org/2000/svg" xmlns:xlink="http://www.w3.org/1999/xlink" x="0px" y="0px"
	 viewBox="0 0 300 100" style="enable-background:new 0 0 300 100;" xml:space="preserve">
<style type="text/css">
	.st0{fill:none;stroke:#92D6E3;stroke-width:4.0772;stroke-linecap:round;stroke-miterlimit:10;}
	.st1{fill:none;stroke:#14467C;stroke-width:4.6312;stroke-linecap:round;stroke-linejoin:round;stroke-miterlimit:10;}
	.st2{fill:none;stroke:#14467C;stroke-width:5.0679;stroke-linecap:round;stroke-miterlimit:10;}
	.st3{fill:none;stroke:#92D6E3;stroke-width:4.5656;stroke-linecap:round;stroke-miterlimit:10;}
	.st4{fill:none;stroke:#92D6E3;stroke-width:4.3956;stroke-linecap:round;stroke-miterlimit:10;}
	.st5{fill:none;stroke:#92D6E3;stroke-width:1.3066;stroke-linecap:round;stroke-miterlimit:10;}
	.st6{fill:#92D6E3;}
	.st7{fill:none;stroke:#92D6E3;stroke-width:4.5639;stroke-linecap:round;stroke-linejoin:round;stroke-miterlimit:10;}
	.st8{fill:none;stroke:#13477C;stroke-width:4.4545;stroke-linecap:round;stroke-linejoin:round;stroke-miterlimit:10;}
	.st9{fill:#93D6E3;}
	.st10{fill:none;stroke:#93D6E3;stroke-width:3.8181;stroke-linecap:round;stroke-miterlimit:10;}
	.st11{fill:none;stroke:#93D6E3;stroke-width:3.8181;stroke-linecap:round;stroke-linejoin:round;stroke-miterlimit:10;}
	.st12{fill:none;stroke:#14467C;stroke-width:5.0625;stroke-linecap:round;stroke-miterlimit:10;}
	.st13{fill:none;stroke:#92D6E3;stroke-width:4.5607;stroke-linecap:round;stroke-miterlimit:10;}
	.st14{fill:none;stroke:#92D6E3;stroke-width:4.5591;stroke-linecap:round;stroke-linejoin:round;stroke-miterlimit:10;}
	.st15{fill:none;stroke:#92D6E3;stroke-width:3.4856;stroke-linecap:round;stroke-miterlimit:10;}
	.st16{fill:none;stroke:#93D6E3;stroke-width:3.9546;stroke-linecap:round;stroke-miterlimit:10;}
	.st17{fill:none;stroke:#13477C;stroke-width:4.7865;stroke-linecap:round;stroke-miterlimit:10;}
	.st18{fill:#FFFFFF;stroke:#93D6E3;stroke-width:3.9546;stroke-linecap:round;stroke-miterlimit:10;}
	.st19{fill:none;stroke:#93D6E3;stroke-width:3.9546;stroke-linecap:round;stroke-linejoin:round;stroke-miterlimit:10;}
	.st20{fill:none;stroke:#13477C;stroke-width:5.0238;stroke-linecap:round;stroke-miterlimit:10;}
	.st21{fill:none;stroke:#13477C;stroke-width:4.5087;stroke-linecap:round;stroke-miterlimit:10;}
	.st22{fill:none;stroke:#93D6E3;stroke-width:4.4204;stroke-linecap:round;stroke-linejoin:round;stroke-miterlimit:10;}
	.st23{fill:none;stroke:#13477C;stroke-width:10.3766;stroke-linecap:round;stroke-miterlimit:10;}
</style>
<g>
	<g>
		<path class="st0" d="M270.4,237c3-3.6,7.6-5.9,12.7-5.9c9.1,0,16.5,7.4,16.5,16.5c0,3.4-1,6.6-2.8,9.2c-0.5,0.8-1.1,1.5-1.8,2.2"
			/>
		<path class="st0" d="M245,253c-0.7-2.7-1.8-8.9-0.5-14.7c3.9-17.5,19.9-30.5,38.7-30.5c21.9,0,39.7,17.8,39.7,39.7
			c0,8-2.4,15.7-6.8,22.2c-4.7,7-11.4,12.1-19,15"/>
		<path class="st0" d="M256.3,254.3c-0.6-2.3-0.9-4.6-0.9-7.1c0-15.4,12.4-27.8,27.8-27.8s27.8,12.4,27.8,27.8
			c0,13.2-9.2,24.3-21.6,27.1"/>
	</g>
	<polyline class="st1" points="248.2,286.7 287.4,258.9 268.7,244.4 268.7,301.4 287.4,286.9 248.1,259.1 	"/>
</g>
<g>
	<path class="st2" d="M-124.7,173.9h84.9c8.6,0,15.6-7,15.6-15.6s-6.2-14.9-15.6-15.6c0,0,2.5-5.5,2.3-10.2
		c-0.5-8.6-7-15.6-15.6-15.6c-3.1,0-5.9,0.9-8.3,2.4c-3.6-10.9-13.7-18.7-25.8-18.7c-15.1,0-28.2,11.3-27.3,27.3"/>
	<path class="st3" d="M-87.2,111.2c-8.1,0.2-16.7,6.3-14.6,19.5"/>
	<path class="st2" d="M-138.3,158.6v11.9c0,1.9-1.5,3.4-3.4,3.4h-47.9c-1.9,0-3.4-1.5-3.4-3.4V92.9c0-1.9,1.5-3.4,3.4-3.4h47.9
		c1.9,0,3.4,1.5,3.4,3.4v37.7"/>
	<path class="st4" d="M-138.3,158.6"/>
	<line class="st2" x1="-193" y1="103.8" x2="-138.3" y2="103.8"/>
	<line class="st5" x1="-171.5" y1="96.8" x2="-159.9" y2="96.8"/>
	<line class="st2" x1="-193" y1="158.6" x2="-138.3" y2="158.6"/>
	<circle class="st6" cx="-165.7" cy="166.3" r="2.8"/>
	<g>
		<line class="st7" x1="-141.8" y1="144.9" x2="-113.3" y2="144.9"/>
		<polyline class="st7" points="-127.5,132.1 -113.3,145.2 -127.5,157.2 		"/>
	</g>
</g>
<g>
	<polyline class="st8" points="342.9,248.1 357.3,248.1 365,232 375.1,264.4 383.9,215.1 395.6,275.7 402.5,247.3 424,247.3 	"/>
	<circle class="st9" cx="424" cy="247.3" r="6.3"/>
</g>
<path class="st10" d="M344.5,235.9c5-17,20.7-29.5,39.3-29.5c16.2,0,30.1,9.4,36.8,23"/>
<path class="st10" d="M422.5,261c-5.6,15.9-20.8,27.3-38.6,27.3c-17.8,0-33-11.4-38.6-27.3"/>
<polyline class="st11" points="424.1,222 421.7,230.9 412.6,229 "/>
<polyline class="st11" points="340.6,267.6 344.8,259.4 353.3,263.1 "/>
<g>
	<path class="st12" d="M174.9,50V16.9c0-1.9,1.6-3.5,3.5-3.5H225c1.9,0,3.5,1.6,3.5,3.5v66.9c0,1.9-1.6,3.5-3.5,3.5h-46.7"/>
	<g>
		<path class="st12" d="M159.3,55.5c0,0,2.5-5.5,2.3-10.2c-0.5-8.6-7-15.6-15.6-15.6c-3,0-5.9,0.9-8.3,2.4
			c-3.6-10.8-13.7-18.7-25.8-18.7c-15.1,0-28.2,11.2-27.3,27.3c0.1,1.6,0.7,4.7,0.7,4.7C73.1,45.5,63.9,54.5,63.9,66
			c0,11.4,9.3,20.7,20.7,20.7h71.2"/>
		<path class="st13" d="M111.8,24c-8.1,0.2-16.7,6.3-14.6,19.4"/>
		<g>
			<line class="st14" x1="153.9" y1="71.6" x2="182.4" y2="71.6"/>
			<polyline class="st14" points="168.3,58.8 182.4,71.9 168.3,83.9 			"/>
		</g>
		<line class="st15" x1="217" y1="27.3" x2="185.7" y2="27.3"/>
		<line class="st15" x1="185.7" y1="47.1" x2="217" y2="47.1"/>
		<line class="st15" x1="185.7" y1="37.2" x2="217" y2="37.2"/>
	</g>
</g>
<g>
	<line class="st16" x1="190.9" y1="248.7" x2="190.9" y2="205.6"/>
	<line class="st16" x1="151.1" y1="245.4" x2="230.8" y2="245.4"/>
	<path class="st16" d="M190.9,205.6c0,0,23.7,15.2,23.7,39.9c0,4.2-0.7,8.1-1.8,11.7"/>
	<path class="st16" d="M190.9,205.6c0,0-23.7,15.2-23.7,39.9c0,4.6,0.8,8.9,2.2,12.8"/>
	<path class="st16" d="M160.7,219.5c0,0,14.6,6,30.3,6s30.3-6,30.3-6"/>
	<path class="st17" d="M162.7,273.6c-7.2-7.2-11.7-17.2-11.7-28.2c0-22,17.9-39.9,39.9-39.9s39.9,17.9,39.9,39.9
		c0,11-4.5,21-11.7,28.2"/>
	<circle class="st16" cx="191.1" cy="278.1" r="21"/>
	<line class="st18" x1="191.3" y1="288.6" x2="191.3" y2="272.7"/>
	<polyline class="st19" points="181.8,278.1 191.5,267.6 200.4,278.1 	"/>
</g>
<line class="st20" x1="124.9" y1="271.6" x2="144" y2="288.5"/>
<circle class="st21" cx="93.7" cy="246.3" r="40.1"/>
<g>
	<polyline class="st22" points="61.3,249.2 67.2,249.2 75.5,231.8 86.3,266.6 95.8,213.6 108.4,275.6 115.8,248.3 126.1,248.3 	"/>
</g>
<circle class="st20" cx="93.7" cy="246.3" r="40.1"/>
<line class="st23" x1="134.5" y1="280" x2="144" y2="288.5"/>
</svg>
